<svg version="1.1" viewBox="0 0 512 512" xmlns="http://www.w3.org/2000/svg"><path d="m360.89 122.47c-2.28-0.04-4.6047 0.06822-6.9727 0.32422l-23.424 2.3047c-10.24 2.048-20.096 6.3987-29.568 13.055-24.832 17.408-44.927 39.554-60.287 66.434-13.069 22.463-20.836 45.174-23.48 68.125-0.59739-6.2331-1.8292-13.042-3.7852-20.51-7.936-30.208-24.063-54.4-48.383-72.576-1.536-1.024-5.3755-3.1994-11.52-6.5274-5.12-2.816-7.9372-4.9933-8.4492-6.5293-0.768 0.76799-1.5347 1.1523-2.3027 1.1523-1.28 0-3.2017-1.4067-5.7617-4.2227-3.328-3.328-5.2478-5.121-5.7598-5.377-6.656-4.608-15.87-6.6565-27.646-6.1445-15.872 0.768-33.409 10.624-52.609 29.568-30.464 30.208-45.695 63.743-45.695 100.61s15.231 62.08 45.695 75.648c15.104 6.656 31.104 9.9844 48 9.9844 23.808 0 46.72-6.528 68.736-19.584 24.064-14.336 40.064-32.64 48-54.912 0.16957-0.47482 0.2982-0.991 0.44531-1.4883 0.15494 12.985 2.1493 25.397 6.084 37.201 4.608 13.568 14.08 26.495 28.416 38.783 14.336 12.032 28.543 18.944 42.623 20.736 22.272 2.816 43.52-0.25681 63.744-9.2168 16.896-7.424 33.536-17.92 49.92-31.488 20.48-17.152 30.976-32.639 31.488-46.463 0.256-6.4-0.12834-15.361-1.1523-26.881 17.152-3.584 29.824-5.7593 38.016-6.5273 12.288-1.28 20.736-3.5841 25.344-6.9121 2.56-1.024 4.6085-1.6639 6.1445-1.9199-1.28-17.664-2.5598-28.032-3.8398-31.104-4.352-2.048-9.727-3.0723-16.127-3.0723-8.704 0-21.633 2.0485-38.785 6.1445-17.152 4.096-30.208 6.1426-39.168 6.1426 0.512 0-1.7921 1.2798-6.9121 3.8398l-132.86 31.488c-3.072 0.768-6.4004 2.561-9.9844 5.377-1.28 3.328-1.9199 7.2963-1.9199 11.904 0 11.264 3.3284 18.559 9.9844 21.887 1.536 0.512 3.327 0.76758 5.375 0.76758 4.864 0 13.696-1.9198 26.496-5.7598 43.776-13.056 79.489-21.248 107.14-24.576-6.4 19.456-19.456 35.329-39.168 47.617-19.456 12.288-39.809 18.432-61.057 18.432-8.704 0-16.641-1.153-23.809-3.457-5.12-1.792-11.648-5.6315-19.584-11.52-7.936-5.888-12.671-10.879-14.207-14.975-2.816-7.68-4.2246-15.232-4.2246-22.656 0-12.8 6.528-33.281 19.584-61.441 5.632-12.032 9.4715-19.327 11.52-21.887 6.144-7.424 12.032-14.721 17.664-21.889 5.632-5.888 14.209-12.416 25.729-19.584 16.896-10.496 29.441-15.104 37.633-13.824 14.848 2.56 25.984 9.2168 33.408 19.969 4.096 8.448 6.6557 14.463 7.6797 18.047 3.072 4.096 5.6317 6.7845 7.6797 8.0644 5.12 0.512 9.855-1.4078 14.207-5.7598 1.28-19.2-4.3506-36.609-16.895-52.225-11.648-14.784-25.452-22.316-41.412-22.596zm-268.09 64.836c2.304 2.048 4.095 4.3521 5.375 6.9121 5.888-1.536 11.905-2.3027 18.049-2.3027 25.856 0 45.44 10.239 58.752 30.719 8.448 13.056 12.672 27.136 12.672 42.24 0 14.592-4.8638 26.624-14.592 36.096-23.808 22.784-51.457 34.176-82.945 34.176-18.432 0-31.999-2.4309-40.703-7.2949-11.52-6.144-17.281-17.409-17.281-33.793 0-19.2 4.737-37.375 14.209-54.527 13.568-24.32 29.057-41.729 46.465-52.225z" fill="#fff"/></svg>
